<?xml version="1.0" encoding="UTF-8"?>
<svg width="1328px" height="120px" viewBox="0 0 1328 120" xmlns="http://www.w3.org/2000/svg" xmlns:xlink="http://www.w3.org/1999/xlink" version="1.1">
 <!-- Generated by Pixelmator Pro 1.4.2 -->
 <defs>
  <path id="path" d="M62.5 119.322 C57 119.546 50.25 119.542 47.5 119.313 44.75 119.085 40.353 118.268 37.73 117.497 35.106 116.727 30.162 114.612 26.743 112.798 23.323 110.984 17.976 106.956 14.859 103.846 10.98 99.976 7.821 95.426 4.846 89.427 0.5 80.661 0.5 80.661 0.162 64.214 -0.143 49.37 0.042 47.089 2.062 40.806 3.293 36.978 5.953 31.292 7.972 28.173 9.991 25.053 13.792 20.354 16.419 17.731 19.388 14.767 24.28 11.486 29.347 9.059 34.614 6.538 40.253 4.724 45.277 3.936 49.924 3.208 56.161 2.983 60.777 3.377 65.024 3.74 71.65 4.714 75.5 5.542 79.35 6.369 83.477 6.811 84.67 6.524 85.864 6.237 87.552 6.275 88.42 6.608 89.697 7.098 90 8.932 90 16.174 90 24.902 89.942 25.124 87.75 24.784 86.512 24.592 82.928 23.186 79.785 21.66 76.641 20.134 70.601 18.178 66.362 17.313 59.872 15.99 57.57 15.936 51.792 16.968 48.019 17.642 42.276 19.521 39.031 21.142 35.409 22.953 31.017 26.375 27.651 30.011 24.195 33.743 21.408 37.967 20.108 41.441 18.974 44.472 17.549 50 16.941 53.726 16.333 57.452 16.126 63.55 16.481 67.277 16.836 71.005 17.973 76.517 19.009 79.526 20.044 82.535 22.478 87.387 24.416 90.308 26.355 93.229 29.97 97.076 32.449 98.856 34.928 100.637 38.922 102.963 41.324 104.026 43.727 105.088 48.89 106.255 52.799 106.618 57.075 107.015 62.415 106.8 66.203 106.076 69.667 105.415 76.213 103.028 80.752 100.772 85.29 98.516 89.238 96.905 89.524 97.191 89.81 97.477 89.628 101.435 89.118 105.987 88.572 110.869 87.651 114.598 86.873 115.079 86.147 115.527 82.616 116.574 79.027 117.405 75.437 118.236 68 119.099 62.5 119.322 Z M260.999 120 C260.468 120 258.057 115.838 255.641 110.75 253.225 105.663 249.085 96.55 246.44 90.5 243.795 84.45 240.54 77.025 239.206 74 237.873 70.975 235.555 65.8 234.056 62.5 232.558 59.2 229.063 51.55 226.289 45.5 223.516 39.45 218.753 29.301 215.704 22.947 211.621 14.439 209.48 11.084 207.58 10.219 206.161 9.572 205 8.358 205 7.521 205 6.232 207.142 6 219.073 6 229.86 6 233.061 6.292 232.781 7.25 232.58 7.938 231.839 9.85 231.134 11.5 230.429 13.15 230.043 15.625 230.275 17 230.508 18.375 231.701 21.967 232.926 24.983 234.152 27.998 236.166 32.723 237.403 35.483 238.641 38.242 240.709 43.2 242 46.5 243.291 49.8 245.354 54.75 246.585 57.5 247.816 60.25 249.622 64.525 250.598 67 251.575 69.475 254.163 75.059 256.35 79.408 260.235 87.134 260.365 87.268 262.003 85.244 262.926 84.105 264.843 80.771 266.263 77.836 267.683 74.901 269.982 70.025 271.371 67 272.76 63.975 275.046 58.913 276.45 55.751 277.854 52.589 279.879 48.053 280.949 45.67 282.02 43.288 283.854 38.9 285.026 35.919 286.197 32.939 287.733 29.15 288.437 27.5 289.142 25.85 290.232 23.241 290.859 21.703 291.487 20.165 292 17.182 292 15.075 292 12.843 291.356 10.711 290.457 9.965 289.608 9.26 289.046 8.008 289.207 7.183 289.453 5.919 291.72 5.718 303.489 5.913 311.183 6.041 317.694 6.361 317.959 6.626 318.223 6.89 316.703 8.746 314.579 10.749 311.994 13.188 309.009 18.044 305.545 25.446 302.7 31.526 294.356 49.775 287.002 66 279.648 82.225 271.006 101.013 267.798 107.75 264.589 114.488 261.53 120 260.999 120 Z M1318.068 120 C1317.521 120 1311.745 114.488 1305.232 107.75 1298.719 101.013 1283.065 84.7 1270.445 71.5 1257.825 58.3 1246.24 46.435 1244.7 45.133 1243.161 43.831 1241.585 43.08 1241.2 43.464 1240.815 43.848 1240.351 53.463 1240.168 64.831 1239.986 76.199 1240.144 90.582 1240.52 96.794 1241.117 106.668 1241.502 108.443 1243.584 110.918 1244.895 112.475 1246.247 114.48 1246.59 115.375 1247.15 116.833 1245.599 117 1231.533 117 1219.253 117 1215.923 116.721 1216.177 115.714 1216.354 115.006 1217.625 112.869 1219 110.964 1221.5 107.5 1221.5 107.5 1221.798 53.687 1222.076 3.562 1222.214 -0.105 1223.806 0.187 1224.747 0.359 1232.361 7.825 1240.728 16.778 1249.095 25.73 1261.647 39.23 1268.622 46.778 1275.597 54.325 1285.538 64.897 1290.713 70.271 1295.888 75.646 1300.545 79.781 1301.061 79.462 1301.612 79.122 1302 66.614 1302 49.185 1302 32.775 1301.561 17.958 1301.02 16.069 1300.48 14.189 1298.856 11.416 1297.41 9.907 1295.964 8.397 1295.082 6.676 1295.45 6.081 1295.882 5.382 1301.553 5 1311.5 5 1319.96 5 1327.136 5.412 1327.448 5.916 1327.759 6.419 1326.952 8.106 1325.655 9.666 1324.358 11.225 1322.668 13.625 1321.898 15 1320.757 17.041 1320.481 26.621 1320.396 67.149 1320.338 94.456 1320.015 117.519 1319.677 118.399 1319.339 119.28 1318.615 120 1318.068 120 Z M1117.639 118.883 C1115.363 118.819 1110.525 118.173 1106.889 117.448 1103.253 116.723 1097.551 115.021 1094.217 113.667 1090.884 112.312 1086.139 109.816 1083.674 108.12 1081.209 106.424 1076.978 102.552 1074.272 99.517 1071.567 96.481 1068.325 91.939 1067.069 89.423 1065.813 86.908 1064.174 82.296 1063.428 79.175 1062.682 76.054 1062.062 68.1 1062.05 61.5 1062.038 54.332 1062.625 46.976 1063.508 43.231 1064.321 39.783 1066.176 34.613 1067.631 31.742 1069.086 28.871 1072.894 23.96 1076.094 20.829 1079.294 17.698 1083.92 13.959 1086.374 12.521 1088.827 11.083 1093.373 9.015 1096.476 7.924 1099.578 6.834 1105.734 5.455 1110.156 4.86 1116.116 4.058 1120.649 4.087 1127.682 4.972 1132.9 5.629 1139.503 6.969 1142.357 7.951 1145.21 8.933 1149.989 10.974 1152.976 12.488 1155.964 14.002 1160.732 17.622 1163.574 20.532 1167.257 24.304 1169.678 28.072 1172.012 33.661 1173.811 37.973 1175.988 45.616 1176.848 50.647 1178.186 58.475 1178.228 61.093 1177.137 68.801 1176.436 73.755 1175.24 79.873 1174.481 82.397 1173.721 84.92 1172.245 88.901 1171.201 91.243 1170.157 93.584 1167.157 97.874 1164.535 100.776 1161.914 103.677 1157.908 107.134 1155.634 108.456 1153.36 109.778 1148.447 112.002 1144.716 113.398 1140.985 114.794 1134.298 116.625 1129.856 117.468 1125.414 118.311 1119.916 118.948 1117.639 118.883 Z M1123.5 106.292 C1126.25 106.039 1130.806 105.198 1133.624 104.424 1136.442 103.651 1140.93 101.551 1143.596 99.759 1146.263 97.967 1150.148 94.25 1152.23 91.5 1154.311 88.75 1156.95 84.025 1158.095 81 1159.378 77.609 1160.39 71.952 1160.735 66.246 1161.042 61.156 1160.804 54.034 1160.205 50.418 1159.606 46.803 1157.803 41.067 1156.199 37.672 1154.595 34.278 1151.307 29.531 1148.891 27.125 1146.476 24.719 1141.783 21.459 1138.462 19.881 1134.272 17.889 1130.112 16.815 1124.865 16.372 1120.573 16.009 1114.553 16.217 1110.938 16.854 1107.435 17.471 1102.214 19.128 1099.336 20.537 1096.457 21.945 1092.14 25.087 1089.743 27.518 1087.346 29.95 1084.315 34.081 1083.008 36.699 1081.7 39.316 1080.046 43.943 1079.331 46.979 1078.616 50.016 1078.031 56.325 1078.03 61 1078.03 65.675 1078.71 72.386 1079.541 75.914 1080.373 79.441 1082.247 84.521 1083.706 87.202 1085.166 89.883 1088.337 93.9 1090.755 96.128 1093.172 98.356 1097.479 101.243 1100.325 102.543 1103.171 103.844 1108.425 105.323 1112 105.83 1115.575 106.337 1120.75 106.545 1123.5 106.292 Z M150.466 117 C135.959 117 134.836 116.87 135.456 115.255 135.824 114.295 136.772 113.147 137.563 112.705 138.353 112.263 139.675 110.595 140.5 109 141.767 106.549 142 99.201 142 61.615 142 33.734 141.618 16.127 140.978 14.442 140.416 12.963 138.84 10.876 137.478 9.804 136.115 8.732 135 7.438 135 6.927 135 6.397 141.674 6 150.583 6 159.628 6 166.027 6.385 165.833 6.919 165.65 7.424 164.298 8.945 162.829 10.297 161.027 11.958 159.889 14.34 159.329 17.629 158.873 20.308 158.5 39.825 158.5 61 158.5 82.175 158.874 101.694 159.33 104.376 159.875 107.578 161.076 110.152 162.83 111.876 164.298 113.319 165.645 115.063 165.823 115.75 166.072 116.711 162.516 117 150.466 117 Z M370.511 116.5 C358.924 116.5 355 116.19 355 115.273 355 114.598 356.091 113.331 357.425 112.457 358.759 111.583 360.334 109.481 360.925 107.785 361.627 105.77 362 89.719 362 61.473 362 25.941 361.741 17.625 360.548 14.769 359.749 12.857 357.921 10.523 356.486 9.583 355.05 8.642 354.054 7.339 354.273 6.686 354.557 5.839 359.142 5.5 370.332 5.5 383.009 5.5 385.994 5.764 385.997 6.885 385.999 7.647 384.927 9.265 383.616 10.48 382.305 11.695 380.505 15.191 379.616 18.249 378.255 22.929 378 29.741 378 61.355 378 84.204 378.421 100.976 379.076 104.201 379.761 107.574 381.04 110.306 382.595 111.719 383.939 112.939 385.26 114.514 385.53 115.219 385.917 116.227 382.711 116.5 370.511 116.5 Z M471.161 116.788 C455.575 116.629 442.597 116.14 442.321 115.699 442.044 115.258 442.966 113.834 444.369 112.534 445.771 111.234 447.146 109.12 447.423 107.835 447.7 106.551 448.393 102.264 448.963 98.309 449.533 94.353 450 77.623 450 61.131 450 44.639 449.532 27.625 448.961 23.323 448.39 19.02 447.477 14.364 446.933 12.975 446.389 11.586 444.944 10.011 443.722 9.475 442.5 8.939 441.5 7.825 441.5 7 441.5 5.737 443.873 5.486 456.5 5.412 464.75 5.363 471.95 5.734 472.5 6.236 473.146 6.826 472.572 7.919 470.878 9.325 469.436 10.521 467.639 12.625 466.885 14 465.82 15.941 465.435 24.101 465.163 50.5 464.971 69.2 465.118 87.76 465.491 91.744 465.932 96.454 466.809 99.777 467.998 101.244 469.701 103.345 470.604 103.5 481.163 103.5 487.398 103.5 493.776 103.144 495.336 102.709 496.896 102.275 499.371 100.7 500.836 99.209 502.301 97.719 504.1 96.347 504.833 96.161 505.89 95.892 506.016 97.022 505.443 101.611 505.045 104.795 504.67 109.211 504.61 111.425 504.518 114.787 504.089 115.583 502 116.262 500.625 116.709 486.748 116.946 471.161 116.788 Z M561.167 117 C553.008 117 546.064 116.731 545.735 116.402 545.407 116.073 545.38 115.174 545.676 114.402 545.972 113.631 546.994 113 547.947 113 549.098 113 550.153 111.573 551.09 108.75 552.216 105.356 552.5 95.809 552.5 61.369 552.5 24.426 552.271 17.612 550.909 13.874 549.79 10.805 548.75 9.508 547.409 9.505 546.168 9.502 545.5 8.8 545.5 7.5 545.5 5.602 546.259 5.486 560.422 5.222 569.47 5.054 575.74 5.34 576.349 5.949 577.022 6.623 576.165 8.109 573.752 10.452 570.816 13.304 570.031 14.925 569.507 19.225 569.153 22.126 569.007 43.175 569.182 66 569.433 98.714 569.79 108.064 570.872 110.165 571.626 111.631 573.089 113.052 574.122 113.322 575.155 113.592 576 114.53 576 115.406 576 116.793 574.072 117 561.167 117 Z M641.5 116.505 C632.262 116.84 625.924 116.666 625 116.053 623.79 115.249 623.734 114.714 624.713 113.279 625.381 112.301 627.213 109.25 628.784 106.5 630.356 103.75 635.166 95.425 639.472 88 643.779 80.575 651.099 67.975 655.739 60 660.378 52.025 667.398 40.128 671.337 33.562 675.277 26.995 678.652 20.741 678.839 19.663 679.169 17.756 678.652 17.719 659.839 18.27 648.956 18.588 639.072 19.354 637.234 20.021 635.438 20.673 633.383 22.043 632.667 23.064 631.952 24.086 630.609 25.213 629.683 25.568 628.182 26.144 628 25.234 628 17.142 628 9.513 628.278 7.927 629.75 7.167 630.712 6.67 648.04 6.173 668.255 6.063 700.283 5.887 705.084 6.056 705.591 7.376 705.911 8.211 704.833 10.835 703.188 13.228 701.546 15.613 698.972 19.8 697.468 22.532 695.964 25.265 693.277 29.975 691.497 33 689.717 36.025 685.67 43 682.503 48.5 679.336 54 673.702 63.225 669.983 69 666.264 74.775 660.195 84.554 656.496 90.73 652.161 97.97 649.998 102.552 650.41 103.626 650.987 105.13 652.908 105.231 670.274 104.668 680.848 104.325 691.75 103.589 694.5 103.031 697.971 102.327 700.336 101.097 702.236 99.008 703.74 97.354 705.447 96 706.028 96 706.737 96 706.859 98.546 706.4 103.75 706.024 108.013 705.351 112.489 704.904 113.696 704.371 115.134 702.926 116.111 700.719 116.525 698.865 116.873 690.857 116.886 682.924 116.555 674.991 116.223 665.8 115.954 662.5 115.957 659.2 115.959 649.75 116.206 641.5 116.505 Z M749.654 116.5 C742.589 116.5 736.621 116.197 736.392 115.825 736.163 115.454 737.326 113.672 738.976 111.865 740.627 110.057 742.914 106.536 744.058 104.039 745.202 101.543 747.823 95.9 749.883 91.5 751.943 87.1 757.406 75.175 762.023 65 766.641 54.825 772.827 41.325 775.769 35 778.712 28.675 783.195 19.113 785.732 13.75 788.27 8.388 790.961 4 791.715 4 792.478 4 795.696 9.421 798.987 16.25 802.234 22.988 807.01 33 809.601 38.5 812.191 44 815.766 51.65 817.545 55.5 819.323 59.35 822.468 66.1 824.531 70.5 826.596 74.9 829.736 81.65 831.51 85.5 833.283 89.35 836.386 95.927 838.404 100.114 840.423 104.302 842.845 108.469 843.787 109.375 844.729 110.281 846.584 111.844 847.909 112.849 849.293 113.899 850.012 115.171 849.6 115.838 849.106 116.637 844.211 117 833.941 117 821.917 117 819 116.731 819 115.623 819 114.865 819.675 113.685 820.5 113 821.351 112.294 822 110.114 822 107.961 822 105.874 821.082 101.991 819.96 99.333 818.838 96.675 817.069 92.658 816.028 90.406 814.136 86.313 814.136 86.313 802.812 85.666 796.583 85.31 786.406 85.31 780.198 85.665 768.908 86.311 768.908 86.311 767.006 90.486 765.96 92.782 764.119 97.1 762.914 100.081 761.709 103.061 760.515 106.478 760.26 107.673 760.005 108.869 760.606 111.217 761.595 112.893 762.585 114.568 763.193 116.065 762.947 116.219 762.701 116.374 756.719 116.5 749.654 116.5 Z M792.059 75.884 C801.903 75.968 806.115 75.636 807.433 74.673 809.139 73.425 808.752 72.228 800.957 54.645 796.397 44.36 792.209 36.097 791.649 36.284 791.089 36.47 787.316 44.021 783.264 53.062 779.212 62.103 775.648 70.695 775.343 72.156 774.918 74.186 775.225 74.925 776.644 75.29 777.665 75.553 784.601 75.82 792.059 75.884 Z M904.927 117 C891.744 117 888.911 116.751 889.177 115.615 889.354 114.854 890.911 112.921 892.636 111.321 895.771 108.411 895.771 108.411 896.475 93.956 896.861 86.005 897.025 66.096 896.839 49.713 896.553 24.618 896.263 19.764 895 18.906 894.082 18.282 890.01 18.123 884.5 18.495 876.106 19.063 875.278 19.319 872.21 22.302 870.401 24.061 868.221 25.654 867.366 25.842 866.022 26.137 865.899 25.124 866.456 18.342 866.81 14.029 867.311 9.488 867.569 8.25 868.038 6 868.038 6 903.896 6 931.391 6 939.985 6.292 940.74 7.25 941.282 7.938 942.006 11.324 942.35 14.776 942.693 18.227 943.254 22.165 943.596 23.526 944.051 25.339 943.814 26 942.708 26 941.879 26 939.681 24.481 937.824 22.624 934.628 19.428 933.95 19.208 925.124 18.51 917.145 17.878 915.561 18.01 914.15 19.42 912.704 20.865 912.455 24.925 912.134 52.284 911.933 69.453 912.233 88.959 912.801 95.63 913.369 102.302 914.409 108.683 915.113 109.809 915.816 110.936 917.429 112.33 918.696 112.907 919.963 113.485 921 114.642 921 115.479 921 116.778 918.648 117 904.927 117 Z M1002.059 117 C993.188 117 985.86 116.583 985.537 116.06 985.217 115.543 985.528 114.643 986.228 114.06 986.927 113.477 988.474 112.212 989.665 111.25 991.596 109.689 991.96 107.878 993.032 94.5 993.8 84.909 994.034 69.403 993.68 51.5 993.376 36.1 992.827 21.25 992.461 18.5 992.094 15.75 991.095 12.713 990.242 11.75 989.388 10.788 988.133 10 987.452 10 986.771 10 985.93 9.261 985.583 8.357 985.237 7.453 985.166 6.501 985.426 6.24 985.687 5.98 993.122 5.707 1001.95 5.634 1013.68 5.536 1018 5.817 1018 6.679 1018 7.327 1017.333 8.524 1016.518 9.339 1015.703 10.155 1014.599 10.974 1014.065 11.161 1013.532 11.347 1012.399 13.173 1011.548 15.218 1010.232 18.377 1010 25.38 1010 61.819 1010 90.625 1010.364 105.745 1011.108 107.881 1011.736 109.681 1013.472 111.71 1015.108 112.556 1016.699 113.379 1018 114.715 1018 115.526 1018 116.763 1015.438 117 1002.059 117 Z"/>
 </defs>
 <defs>
  <linearGradient id="linear-gradient" gradientUnits="userSpaceOnUse" x1="546.652" y1="95.152" x2="546.652" y2="21.383">
   <stop offset="0" stop-color="#e1e1e1" stop-opacity="1"/>
   <stop offset="1" stop-color="#ffffff" stop-opacity="1"/>
  </linearGradient>
 </defs>
 <use id="shape" xlink:href="#path" fill="url(#linear-gradient)" fill-opacity="1" stroke="none"/>
 <defs>
  <linearGradient id="linear-gradient-1" gradientUnits="userSpaceOnUse" x1="549.35" y1="93.865" x2="549.35" y2="23.592">
   <stop offset="0" stop-color="#f4f4f4" stop-opacity="1"/>
   <stop offset="1" stop-color="#ececec" stop-opacity="1"/>
  </linearGradient>
 </defs>
 <defs>
  <path id="stroke-path" d="M1317.547 37.359 L1318.125 18.719 1318.938 14.047 1322.938 8.359 1321.344 8.219 1309.703 8.016 1299.828 8.328 1302.891 12.688 1303.953 15.328 1304.297 18.156 1304.875 34.531 1304.984 55.594 1304.672 72.844 1303.813 81.531 1300.578 82.938 1294.938 78.625 1288.563 72.375 1237.016 17.219 1226.375 6.359 1225.453 5.578 1224.156 102.719 1223.203 109.641 1220.656 113.828 1231.531 114 1242.094 113.844 1239.141 109.453 1238.094 104.391 1237.625 98.766 1237.188 87.078 1237.156 64.797 1237.813 46.063 1238.203 42.438 1240.891 39.766 1245.5 41.938 1248.609 44.734 1309.688 108.063 1316.875 114.781 Z M76.172 114.906 L81.969 113.563 84.719 112.609 85.047 111.844 85.797 108.203 86.516 101.453 77.203 105.656 71.078 107.891 66 109.172 60.672 109.734 51.719 109.547 43.406 107.922 38.516 106.016 31.672 102 26.641 97.719 22.328 92.609 19.063 87.047 15.953 79.891 14.031 71.672 13.328 65.078 13.656 55.734 14.969 48.359 16.594 42.422 18.281 38.094 21.078 33.391 24.75 28.719 29.063 24.469 33.766 20.766 38.344 18.141 43.422 16.141 52.313 13.844 57.938 13.234 61.594 13.453 67.813 14.547 73.516 16.109 86.5 21.297 86.922 21.422 86.953 12.625 86.672 9.406 83.719 9.641 79.422 9.297 62.109 6.547 54.109 6.219 48.359 6.578 43.078 7.422 33.406 10.531 27.938 13.156 23.031 16.188 19 19.422 15.891 22.734 11.75 27.953 9.422 31.594 6.344 37.969 4 44.828 3.281 49 3.047 53.594 3.344 71.906 3.859 78.625 4.906 82.469 8.063 89.156 11.438 94.953 13.734 98.109 18.828 103.453 24.75 108.063 29.453 110.828 37 114.094 41.828 115.406 47.75 116.328 62.344 116.328 Z M1124.281 115.328 L1130 114.391 1143 110.828 1154.063 105.891 1157.484 103.375 1160.813 100.344 1163.672 97.172 1167.188 92.297 1168.453 89.984 1170.578 84.594 1172 80.016 1173.859 70.344 1174.813 62.484 1174.875 58.922 1173.719 50.25 1171.578 41.656 1168.813 33.859 1165.297 27.359 1160.844 22.078 1155.844 17.891 1151.563 15.156 1142.484 11.203 1133.266 8.891 1121.578 7.391 1113.641 7.5 1105.266 8.766 1097.453 10.781 1089.359 14.328 1084.047 17.859 1077.641 23.531 1073 28.969 1070.344 33.063 1067.344 40.641 1066.016 46.078 1065.063 60.234 1065.547 72.578 1066.484 79.047 1069.094 86.625 1072.141 91.938 1076.516 97.547 1081.625 102.609 1086.891 106.625 1093.5 110.094 1099.578 112.406 1108.766 114.75 1117.75 115.875 Z M569.922 113.859 L568.219 111.781 567.063 105.984 566.328 82.172 566.109 41.797 566.328 22.453 566.875 16.422 568.328 12.297 571.734 8.359 555.688 8.328 551.359 8.578 552.453 9.938 553.906 13.313 554.625 16.641 555.281 27.766 555.5 61.375 555.281 94 554.688 105.797 554.078 109.281 552.297 113.391 551.875 113.813 561.172 114 Z M497.219 113.625 L500.797 113.406 501.328 113.25 501.422 113.141 501.563 112.547 502.422 101.766 499.313 104.172 496.188 105.625 492.891 106.078 483.531 106.5 471.531 106.25 467.953 105.313 465.25 102.703 463.75 99.219 462.797 94.641 462.203 84.313 462.156 50.469 462.828 20.859 463.922 13.031 466.906 8.984 467.188 8.703 459.469 8.422 447.578 8.563 447.547 8.563 449.609 11.484 451.719 21.297 452.609 35.016 452.984 58.031 452.75 81.953 451.938 98.641 450.016 109.719 448.063 112.938 447.875 113.141 449.25 113.281 471.203 113.797 Z M380.016 113.344 L379.359 112.625 378.047 110.516 376.625 106.875 375.906 103.328 375.109 80.875 375.016 45.938 375.391 27.281 376.313 18.938 379.078 11.672 381.359 8.688 370.359 8.5 359.828 8.797 361.375 10.281 363.141 13.188 364 16.031 364.625 23.266 364.969 44.109 364.891 84.422 364.281 105.484 363.906 108.422 362.703 111 360.953 113.344 370.5 113.5 Z M1011.813 113.844 L1009.969 112.016 1007.938 107.688 1007.203 91.969 1007 61.828 1007.188 28.594 1007.844 17.672 1008.578 14.5 1010.688 10.344 1012.469 8.813 1004.078 8.625 991.391 8.891 992.859 10.109 994.547 14 995.438 18.109 996.25 34.859 996.828 67.5 996.406 88.688 994.797 106.953 993.344 111.766 991.141 113.719 1002.078 114 Z M261.203 114.141 L266.438 103.609 304.781 20.156 309.594 11.969 312.109 9.188 311.359 9.125 295.094 8.875 293.406 8.969 293.969 9.75 294.938 13.516 294.781 18.078 293.844 22.313 284.594 44.828 272.922 70.781 267.156 82.641 264.484 86.984 260.609 90.344 257.234 87.359 255.516 84.422 249.516 72.078 228.766 22.516 227.422 18.156 227.203 15.297 227.859 11.719 228.781 9.203 216.922 9.016 210.984 9.141 212.828 11.281 217.625 20.047 236.781 61.25 257.359 107.375 260.953 114.531 Z M160.594 113.828 L158.125 110.516 156.25 104.234 155.625 83.5 155.5 61 155.797 29.438 156.344 17.219 157.172 13.797 158.797 10.422 159.859 9.188 150.594 9 140.984 9.281 142.25 10.563 144.109 14.609 144.781 31.266 144.984 56.453 144.906 88.922 144.313 105.531 143.719 109.063 142.781 111.125 140.875 113.781 140.781 113.859 150.453 114 Z M844.297 113.734 L841.266 111.141 836.516 103.094 795.656 16.297 791.703 9 788.359 15.172 746.484 105.906 743.875 110.406 741.766 113.266 749.672 113.5 758.484 113.297 757.609 111.234 757.188 107.313 761.109 96.578 764.688 88.328 766.719 85.172 769.406 83.781 772.703 83.188 788.391 82.422 808.313 83 812.688 83.531 816.203 85.047 818.328 88.219 822.781 98.313 824.75 105.141 824.813 110.438 823.703 113.719 825.313 113.906 842.016 113.906 Z M914.75 113.844 L914.344 113.563 912.109 110.672 910.766 104.313 909.797 95.875 909.219 80.875 909.094 55.516 909.609 27.75 910.688 19.031 913.641 15.906 917.609 15.156 931.891 16.172 936.469 17.563 940.172 20.766 938.563 10.188 938.438 9.797 924.391 9.109 879.703 9.078 870.719 9.469 870.516 9.516 869.281 20.828 872.922 17.766 876.672 16.297 890.797 15.297 894.891 15.656 897.172 16.609 898.422 18.672 899.375 26.797 899.891 55.953 899.813 80.953 899.125 100.922 898.672 106.109 897.625 110.125 894.266 113.828 904.922 114 Z M700.984 113.328 L701.844 112.891 702.5 110.672 703.406 103.375 703.484 101.734 700.938 103.953 694.516 106.094 682.063 107.156 658.016 107.984 651.406 107.688 648.641 106.594 647.078 103.406 649.328 97.406 653.094 90.563 678.641 49.188 696.938 17.469 701.359 10.516 701.891 9.438 696.453 9.109 660.828 9.125 632.031 9.891 631.453 9.969 631.094 11.875 631 19.813 631.031 20.641 633.141 18.703 636.219 17.172 638.594 16.672 653.703 15.5 672.719 14.969 678.547 15.219 682.469 17.563 680.578 23.25 675.406 32.594 628.125 113.469 631.375 113.672 641.422 113.516 662.5 112.969 697.219 113.766 Z M1116.313 109.281 L1110.813 108.703 1104.219 107.141 1098.453 105.016 1093 101.719 1088.203 97.875 1083.984 93.047 1080.766 88.094 1078.266 82.109 1076.422 75.844 1075.203 66.031 1075.078 58.141 1075.734 50.219 1076.922 44.313 1080.031 35.906 1083.047 30.938 1087.609 25.406 1093.266 20.719 1098.594 17.563 1104.828 15.281 1111.156 13.781 1118.516 13.219 1126.156 13.484 1133.688 14.875 1139.75 17.172 1144.984 20.219 1150.469 24.469 1153.703 28.109 1157.75 34.172 1159.906 38.703 1162.688 47.547 1163.656 54.453 1163.734 66.453 1162.141 77.922 1160.047 84.109 1155.031 92.781 1148.313 99.906 1142.109 104.141 1134.469 107.328 1123.766 109.297 Z M776.234 78.328 L773.313 77.125 772.031 73.984 772.953 69.75 779 55.25 784.875 42.438 791.469 30.359 796.813 38.891 802.828 51.484 809.063 65.797 811.266 72.328 811.141 74.719 809.484 77.063 805.844 78.391 792.047 78.891 Z"/>
 </defs>
 <use id="shape-1" stroke="url(#linear-gradient-1)" stroke-opacity="1" stroke-linecap="round" fill="none" stroke-width="6" xlink:href="#stroke-path"/>
</svg>
