<?xml version="1.0" encoding="UTF-8"?>
<svg width="176px" height="115px" viewBox="0 0 176 115" xmlns="http://www.w3.org/2000/svg" xmlns:xlink="http://www.w3.org/1999/xlink" version="1.1">
 <!-- Generated by Pixelmator Pro 1.4.2 -->
 <defs>
  <path id="path" d="M55.985 115 C55.61 115 52.271 108.496 48.564 100.543 44.857 92.591 40.256 82.673 38.339 78.504 36.422 74.336 33.811 68.58 32.538 65.714 31.264 62.848 28.977 57.802 27.455 54.502 25.933 51.203 23.612 46.027 22.297 43.002 20.982 39.977 18.528 34.578 16.844 31.002 15.16 27.427 12.254 21.204 10.387 17.172 8.519 13.141 5.53 8.416 3.745 6.672 1.959 4.929 0.318 3.075 0.098 2.552 -0.118 2.03 0.323 1.394 1.087 1.14 1.85 0.885 7.878 0.785 14.481 0.917 21.084 1.05 26.691 1.362 26.94 1.611 27.189 1.86 26.615 3.381 25.664 4.99 23.972 7.854 24.008 8.104 27.357 16.71 29.239 21.546 32.332 28.877 34.229 33.002 36.126 37.127 39.365 44.777 41.426 50.002 43.488 55.227 47.221 64.565 49.722 70.752 52.518 77.669 54.817 82.002 55.69 82.002 56.471 82.002 58.04 79.865 59.177 77.252 60.314 74.64 62.081 70.631 63.104 68.344 64.127 66.057 66.028 61.332 67.328 57.844 68.629 54.356 71.852 46.552 74.492 40.502 77.132 34.453 80.424 26.578 81.809 23.002 83.194 19.427 83.989 17.314 84.998 16.002 86.007 14.691 88.423 8.43 88 7 85.408 -1.752 86.509 5.87 85.974 4.48 85.433 3.079 84.234 2.51 83.999 2.001 83.468 0.85 90.124 0.74 97.798 0.776 105.06 0.809 111.564 1.041 112.25 1.291 113.133 1.613 111.708 2.856 111 4 110.45 4.889 110.297 6.221 108.828 7.74 107.36 9.259 104.98 12.977 103.54 16.002 102.1 19.027 99.472 24.203 97.7 27.502 95.928 30.802 92.818 37.102 90.789 41.502 88.761 45.902 85.438 53.102 83.407 57.502 81.375 61.902 78.171 68.877 76.286 73.002 74.4 77.127 71.118 84.229 68.992 88.783 66.866 93.337 63.223 101.1 60.896 106.033 58.57 110.966 56.359 115 55.985 115 Z M159.531 112.002 C146.585 112.002 143.908 111.758 144.174 110.599 144.352 109.827 145.623 108.291 146.998 107.187 149.498 105.178 149.498 105.178 149.498 56.449 149.498 9.518 149.427 7.679 147.586 6.611 146.534 6.001 144.801 4.67 143.735 3.652 142.67 2.635 142.18 1.47 142.648 1.063 143.115 0.657 150.698 0.422 159.498 0.541 172.112 0.712 175.498 1.042 175.498 2.101 175.498 2.839 174.405 3.988 173.07 4.654 171.735 5.319 170.063 6.908 169.355 8.183 168.36 9.977 168.061 20.89 168.033 56.318 168.008 88.968 168.328 102.762 169.148 104.318 169.78 105.519 170.792 106.833 171.398 107.236 172.003 107.64 172.809 108.09 173.19 108.236 173.57 108.383 174.181 109.29 174.547 110.252 175.162 111.873 174.052 112.002 159.531 112.002 Z"/>
 </defs>
 <defs>
  <linearGradient id="linear-gradient" gradientUnits="userSpaceOnUse" x1="44.077" y1="111.203" x2="44.077" y2="-8.832">
   <stop offset="0" stop-color="#afa990" stop-opacity="1"/>
   <stop offset="1" stop-color="#cbc7aa" stop-opacity="1"/>
  </linearGradient>
 </defs>
 <use id="shape" xlink:href="#path" fill="url(#linear-gradient)" fill-opacity="1" stroke="none"/>
 <defs>
  <linearGradient id="linear-gradient-1" gradientUnits="userSpaceOnUse" x1="91.892" y1="115.008" x2="91.892" y2="0.517">
   <stop offset="0" stop-color="#b2a98a" stop-opacity="1"/>
   <stop offset="1" stop-color="#bbb595" stop-opacity="1"/>
  </linearGradient>
 </defs>
 <defs>
  <path id="stroke-path" d="M166.75 107.906 L165.672 106.516 164.688 101.969 164.109 81.734 164.078 38.766 164.406 16.813 165.172 7.594 167.016 4.781 159.391 4.547 151.313 4.625 151.875 5.078 152.891 9.188 153.313 16.828 153.484 73.219 153.109 100.828 152.063 107.453 151.672 107.875 159.531 108.016 Z M57.375 104.125 L91.672 30.469 100.938 12.281 103.953 7.422 105.875 4.969 94.984 4.781 91.438 4.891 92.172 7.422 91.109 12.047 89.297 16.516 86.75 21.313 62.781 79 60.734 82.75 55.297 87.875 50.391 81.844 47.578 76 22.047 14.047 20.859 10.453 20.516 6.859 21.219 5.156 21.047 5.141 7.578 4.859 7.172 4.875 9.875 8.078 13.578 14.594 52.125 98.719 56.094 106.453 Z"/>
 </defs>
 <use id="shape-1" stroke="url(#linear-gradient-1)" stroke-opacity="1" stroke-linecap="round" fill="none" stroke-width="8" xlink:href="#stroke-path"/>
 <defs>
  <linearGradient id="linear-gradient-2" gradientUnits="userSpaceOnUse" x1="89.527" y1="114.838" x2="89.527" y2="0.347">
   <stop offset="0" stop-color="#9b947a" stop-opacity="1"/>
   <stop offset="1" stop-color="#cdc7a3" stop-opacity="1"/>
  </linearGradient>
 </defs>
 <defs>
  <path id="stroke-path-1" d="M171.734 109.828 L171.75 109.828 169.781 108.563 167.531 105.641 166.672 101.734 166.109 81.703 166.078 38.781 166.406 16.922 167.125 8.266 169.234 5.047 171.938 3 171.125 2.906 159.438 2.547 146.984 2.656 145.828 2.75 150.094 6.203 150.906 9.484 151.313 16.875 151.484 73.219 151.109 100.656 150.172 106.547 147.25 109.734 147.922 109.813 159.531 110.016 Z M3 3.031 L8.219 9.219 11.797 15.516 50.344 99.641 56.047 110.734 59.078 105.203 93.469 31.344 102.672 13.266 105.594 8.563 108.203 5.25 109.484 3.063 109.219 3.031 94.969 2.781 88.75 2.969 88.891 3.203 90.109 7.484 89.188 11.453 87.484 15.672 84.922 20.484 60.984 78.125 59.141 81.516 55.484 84.953 52.094 80.766 49.406 75.188 23.922 13.344 22.828 10.031 22.563 7.172 24.109 3.406 21.25 3.141 7.531 2.859 Z"/>
 </defs>
 <use id="shape-2" stroke="url(#linear-gradient-2)" stroke-opacity="1" stroke-linecap="round" fill="none" stroke-width="4" xlink:href="#stroke-path-1"/>
</svg>
